<svg t="1730282509505" class="icon" viewBox="0 0 1024 1024" version="1.1" xmlns="http://www.w3.org/2000/svg" p-id="4386"
    width="200" height="200">
    <path
        d="M434.3 187.1c-10.3 8-54.8 59.8-102.9 116.1-10.1-3.6-21-5.6-32.4-5.6H159.3c-52.6 0-95.3 42.7-95.3 95.3v238.3c0 52.6 42.7 95.4 95.3 95.4H299c11.6 0 22.8-2.1 33.1-5.9 49.1 57.9 94.1 110.9 101.4 116.8 19.8 16 94.2 34.2 113.5-36.9 2.9-10.7 37.4-161.8 37.4-308.5 0-133.7-34.2-256.3-39.1-270-26.4-73.9-94.2-48.2-111-35zM696 333.8c-17.3 17.5-18.2 49.6-7.7 74.6 30.3 70 30.3 152.7 0 222.7-10.5 24.9-9.7 57.1 7.7 74.5 17.1 17.4 50.6 5.1 66.5-31.6 41.9-97 41.9-211.7 0-308.6-15.9-36.7-49.4-49-66.5-31.6z m220.5-27.5c-21.9-50.8-66.1-67.8-89.8-43.7-24 24.1 0.2 68.4 14.8 103 41.8 96.8 48.2 211.3 6.3 308.1-14.6 34.6-45.1 79-21.1 103.1 23.7 24.1 67.9 7.1 89.8-43.7 58-134.1 58-292.7 0-426.8z"
        fill="#040000" p-id="4387"></path>
</svg>