<svg t="1730282534959" class="icon" viewBox="0 0 1024 1024" version="1.1" xmlns="http://www.w3.org/2000/svg" p-id="4533"
    width="200" height="200">
    <path
        d="M480.3 261.2c4.2 11.9 33.8 118 33.8 233.6 0 127-29.8 257.7-32.3 266.9-16.7 61.6-81.1 45.8-98.2 31.9-13.7-11.1-182.4-216.2-205.7-235.3-42.7-41.4-34.8-63.7 0-91.5 16.8-14 186.5-220.3 206.4-235.9 14.6-11.4 73.2-33.7 96 30.3z"
        fill="#040000" p-id="4534"></path>
    <path
        d="M146.5 326.6h120.8c45.5 0 82.5 36.9 82.5 82.5v206.2c0 45.5-36.9 82.5-82.5 82.5H146.5c-45.5 0-82.5-37-82.5-82.5V409c0-45.5 36.9-82.4 82.5-82.4zM667.2 585.4l219.6-219.7L960 439 740.4 658.6z"
        fill="#040000" p-id="4535"></path>
    <path d="M740.4 365.7L960 585.4l-73.2 73.2L667.2 439z" fill="#040000" p-id="4536"></path>
</svg>