<svg xmlns="http://www.w3.org/2000/svg" xmlns:xlink="http://www.w3.org/1999/xlink" viewBox="0 0 286 284" width="286" height="284" preserveAspectRatio="xMidYMid meet" style="width: 100%; height: 100%; transform: translate3d(0px, 0px, 0px); content-visibility: visible;"><defs><clipPath id="__lottie_element_6"><rect width="286" height="284" x="0" y="0"></rect></clipPath></defs><g clip-path="url(#__lottie_element_6)"><g transform="matrix(1,0,0,1,-226.57000732421875,243.72999572753906)" opacity="1" style="display: block;"><g opacity="1" transform="matrix(1,0,0,1,377.7200012207031,-66.08000183105469)"><path fill="rgb(150,148,141)" fill-opacity="1" d=" M-114.22000122070312,-81.27999877929688 C-114.22000122070312,-81.27999877929688 114.77999877929688,-81.27999877929688 114.77999877929688,-81.27999877929688 C114.77999877929688,-81.27999877929688 114.5,81 114.5,81 C114.5,81 -114.5,81 -114.5,81 C-114.5,81 -114.5,-81 -114.5,-81"></path></g><g opacity="1" transform="matrix(1,0,0,1,325.5400085449219,-65.69000244140625)"><path stroke-linecap="butt" stroke-linejoin="miter" fill-opacity="0" stroke-miterlimit="4" stroke="rgb(0,0,0)" stroke-opacity="1" stroke-width="1" d=" M-62.130001068115234,-81.25 C-62.130001068115234,-81.25 -62.130001068115234,81.25 -62.130001068115234,81.25 C-62.130001068115234,81.25 62.130001068115234,36.34000015258789 62.130001068115234,36.34000015258789 C62.130001068115234,36.34000015258789 -62.130001068115234,-81.25 -62.130001068115234,-81.25 C-62.130001068115234,-81.25 -62.130001068115234,-81.25 -62.130001068115234,-81.25z"></path><path fill="rgb(217,217,217)" fill-opacity="1" d=" M-62.130001068115234,-81.25 C-62.130001068115234,-81.25 -62.130001068115234,81.25 -62.130001068115234,81.25 C-62.130001068115234,81.25 62.130001068115234,36.34000015258789 62.130001068115234,36.34000015258789 C62.130001068115234,36.34000015258789 -62.130001068115234,-81.25 -62.130001068115234,-81.25 C-62.130001068115234,-81.25 -62.130001068115234,-81.25 -62.130001068115234,-81.25z"></path></g><g opacity="1" transform="matrix(-0.9999996423721313,0.0008726645028218627,0.0008726645028218627,0.9999996423721313,433.1700134277344,-65.37999725341797)"><path stroke-linecap="butt" stroke-linejoin="miter" fill-opacity="0" stroke-miterlimit="4" stroke="rgb(0,0,0)" stroke-opacity="1" stroke-width="1" d=" M-59.400001525878906,-81.25 C-59.400001525878906,-81.25 -59.400001525878906,81.25 -59.400001525878906,81.25 C-59.400001525878906,81.25 59.400001525878906,36.34000015258789 59.400001525878906,36.34000015258789 C59.400001525878906,36.34000015258789 -59.400001525878906,-81.25 -59.400001525878906,-81.25 C-59.400001525878906,-81.25 -59.400001525878906,-81.25 -59.400001525878906,-81.25z"></path><path fill="rgb(217,217,217)" fill-opacity="1" d=" M-59.400001525878906,-81.25 C-59.400001525878906,-81.25 -59.400001525878906,81.25 -59.400001525878906,81.25 C-59.400001525878906,81.25 59.400001525878906,36.34000015258789 59.400001525878906,36.34000015258789 C59.400001525878906,36.34000015258789 -59.400001525878906,-81.25 -59.400001525878906,-81.25 C-59.400001525878906,-81.25 -59.400001525878906,-81.25 -59.400001525878906,-81.25z"></path></g><g opacity="1" transform="matrix(1,0,0,1,378.0299987792969,-23.899999618530273)"><path stroke-linecap="butt" stroke-linejoin="round" fill-opacity="0" stroke="rgb(0,0,0)" stroke-opacity="1" stroke-width="1" d=" M-114.26000213623047,39.81999969482422 C-114.26000213623047,39.81999969482422 -114.52999877929688,19.18000030517578 -114.52999877929688,19.18000030517578 C-114.52999877929688,19.18000030517578 -32.26900100708008,-34.98500061035156 -29.530000686645508,-36.02000045776367 C-26.791000366210938,-37.05500030517578 33.41299819946289,-38.29899978637695 36.84000015258789,-36.02000045776367 C40.266998291015625,-33.74100112915039 114.47000122070312,19.18000030517578 114.47000122070312,19.18000030517578 C114.47000122070312,19.18000030517578 114.26000213623047,39.81999969482422 114.26000213623047,39.81999969482422 C114.26000213623047,39.81999969482422 -114.26000213623047,39.81999969482422 -114.26000213623047,39.81999969482422 C-114.26000213623047,39.81999969482422 -114.26000213623047,39.81999969482422 -114.26000213623047,39.81999969482422z"></path><path fill="rgb(217,217,217)" fill-opacity="1" d=" M-114.26000213623047,39.81999969482422 C-114.26000213623047,39.81999969482422 -114.52999877929688,19.18000030517578 -114.52999877929688,19.18000030517578 C-114.52999877929688,19.18000030517578 -32.26900100708008,-34.98500061035156 -29.530000686645508,-36.02000045776367 C-26.791000366210938,-37.05500030517578 33.41299819946289,-38.29899978637695 36.84000015258789,-36.02000045776367 C40.266998291015625,-33.74100112915039 114.47000122070312,19.18000030517578 114.47000122070312,19.18000030517578 C114.47000122070312,19.18000030517578 114.26000213623047,39.81999969482422 114.26000213623047,39.81999969482422 C114.26000213623047,39.81999969482422 -114.26000213623047,39.81999969482422 -114.26000213623047,39.81999969482422 C-114.26000213623047,39.81999969482422 -114.26000213623047,39.81999969482422 -114.26000213623047,39.81999969482422z"></path></g><g opacity="1" transform="matrix(1,0,0,-1,378.0199890136719,-186.99000549316406)"><path stroke-linecap="butt" stroke-linejoin="miter" fill-opacity="0" stroke-miterlimit="4" stroke="rgb(0,0,0)" stroke-opacity="1" stroke-width="1" d=" M-114.61000061035156,-39.689998626708984 C-114.61000061035156,-39.689998626708984 -112.5999984741211,-30.1200008392334 -112.5999984741211,-30.1200008392334 C-112.5999984741211,-30.1200008392334 -69.18499755859375,11.496999740600586 -30.450000762939453,32.060001373291016 C-17.597999572753906,38.882999420166016 -5.263999938964844,43.39400100708008 4.800000190734863,43.290000915527344 C15.649999618530273,43.178001403808594 28.4689998626709,37.832000732421875 41.40999984741211,30.06999969482422 C76.6520004272461,8.930999755859375 112.83000183105469,-30.1200008392334 112.83000183105469,-30.1200008392334 C112.83000183105469,-30.1200008392334 114.61000061035156,-39.689998626708984 114.61000061035156,-39.689998626708984 C114.61000061035156,-39.689998626708984 -114.61000061035156,-39.689998626708984 -114.61000061035156,-39.689998626708984 C-114.61000061035156,-39.689998626708984 -114.61000061035156,-39.689998626708984 -114.61000061035156,-39.689998626708984z"></path><path fill="rgb(217,217,217)" fill-opacity="1" d=" M-114.61000061035156,-39.689998626708984 C-114.61000061035156,-39.689998626708984 -112.5999984741211,-30.1200008392334 -112.5999984741211,-30.1200008392334 C-112.5999984741211,-30.1200008392334 -69.18499755859375,11.496999740600586 -30.450000762939453,32.060001373291016 C-17.597999572753906,38.882999420166016 -5.263999938964844,43.39400100708008 4.800000190734863,43.290000915527344 C15.649999618530273,43.178001403808594 28.4689998626709,37.832000732421875 41.40999984741211,30.06999969482422 C76.6520004272461,8.930999755859375 112.83000183105469,-30.1200008392334 112.83000183105469,-30.1200008392334 C112.83000183105469,-30.1200008392334 114.61000061035156,-39.689998626708984 114.61000061035156,-39.689998626708984 C114.61000061035156,-39.689998626708984 -114.61000061035156,-39.689998626708984 -114.61000061035156,-39.689998626708984 C-114.61000061035156,-39.689998626708984 -114.61000061035156,-39.689998626708984 -114.61000061035156,-39.689998626708984z"></path></g></g></g></svg>